<?xml version="1.0" encoding="UTF-8"?>
<svg width="512" height="512" version="1.1" viewBox="0 0 100 100" xmlns="http://www.w3.org/2000/svg">
<circle fill="#f7f7f7" cx="50" cy="50" r="49"/>
<path fill="none" stroke="#222" stroke-width="5" d="m36.1 76.4c-13.3-0.324-25-12.2-25.2-25.5-0.509-12.1 8.24-24 20.2-26.7 11.1-2.76 23.9 2.44 29.3 12.7 3.68 6.52 5.37 14.7 12 19.1 5.22 3.41 12.5 4.42 15.6 10.4 1.8 3.35 0.322 8.86-3.88 9.27-4.66 0.145-7.98-3.78-12.2-5.12-9.04-4.57-19.4-4.83-29-7.27-5.18-1.43-11.1-4.62-11.9-10.5-0.668-6.22 5.46-11.9 11.6-10.9 7.33 0.727 12.7 7.99 12.4 15.1 0.154 9.83-8.24 19.1-18.2 19.3z"/>
</svg>